<svg width="717" height="177" viewBox="0 0 717 177" fill="none" xmlns="http://www.w3.org/2000/svg">
<path d="M19.4999 120.001C9.00055 -48.4994 174 -9 175.5 74.5004V176.501M36.5 120.001V156.825H88.9999M95.9999 157.001L88.9999 156.825M88.9999 176.501V156.825M128.5 176.501V120.001L106 98.0007V79.5007H149L151 176.501" stroke="#898BF8" stroke-width="4"/>
<path d="M18 120H38" stroke="#898BF8" stroke-width="3"/>
<path d="M131 90H125.5" stroke="#898BF8" stroke-width="5"/>
<path d="M119.5 90H114" stroke="#898BF8" stroke-width="5"/>
<path d="M131.5 101H126" stroke="#898BF8" stroke-width="5"/>
<path d="M142.5 90H137" stroke="#898BF8" stroke-width="5"/>
<path d="M142.5 101H137" stroke="#898BF8" stroke-width="5"/>
<path d="M142.5 112H137" stroke="#898BF8" stroke-width="5"/>
<path d="M8.18518 26V9M0 17.1852H17" stroke="#898BF8" stroke-width="5"/>
<path d="M31.1852 18V1M23 9.18518H40" stroke="#898BF8" stroke-width="5"/>
<g clip-path="url(#clip0)">
<path d="M136.681 37.6481C137.718 39.6222 138.36 41.7879 138.59 44.0844C138.639 44.5776 138.89 45.029 139.282 45.333C139.674 45.6371 140.175 45.7668 140.666 45.6923C141.35 45.5882 141.915 45.5399 142.441 45.5399C149.987 45.5399 156.125 52.6932 156.125 61.4859C156.125 67.8912 152.852 73.6538 147.786 76.1672C147.21 76.4532 146.745 76.8947 146.425 77.4322H123.525C123.521 77.2947 123.516 77.1575 123.511 77.0172C123.385 73.4831 123.227 69.0872 125.595 66.6385C126.814 65.3778 128.716 64.6436 131.256 64.4434C132.019 66.5208 134.019 68.0072 136.361 68.0072C139.358 68.0072 141.797 65.571 141.797 62.5768C141.797 59.5827 139.358 57.1465 136.361 57.1465C133.979 57.1465 131.952 58.6849 131.219 60.8185C127.646 61.0582 124.881 62.1676 122.987 64.1266C119.55 67.6812 119.746 73.1515 119.889 77.1459C119.892 77.2426 119.895 77.3367 119.899 77.4319H108.506C108.543 58.9837 109.301 49.672 119.261 48.8657C120.025 50.9428 122.025 52.4289 124.366 52.4289C127.364 52.4289 129.803 49.9927 129.803 46.9986C129.803 44.0044 127.364 41.5682 124.366 41.5682C121.984 41.5682 119.956 43.1081 119.223 45.2433C112.799 45.6892 108.699 49.0424 106.716 55.4607C104.996 61.0283 104.887 68.6298 104.88 77.4319H93.5568C93.5498 68.6298 93.4406 61.0283 91.7206 55.4607C89.7378 49.0424 85.6377 45.6892 79.2136 45.2433C78.4812 43.1081 76.4531 41.5682 74.0703 41.5682C71.0729 41.5682 68.6343 44.0044 68.6343 46.9986C68.6343 49.9927 71.0729 52.4289 74.0703 52.4289C76.4116 52.4289 78.4118 50.9428 79.1756 48.8657C89.1361 49.672 89.8939 58.9837 89.9313 77.4319H78.898C78.9014 77.3367 78.9045 77.2429 78.9081 77.1459C78.9383 76.2996 78.9712 75.3871 78.9712 74.4407C78.9712 70.9194 78.5189 66.9281 75.8101 64.1266C73.9159 62.1674 71.1507 61.0582 67.5783 60.8185C66.845 58.6849 64.8176 57.1465 62.4361 57.1465C59.4386 57.1465 57 59.5827 57 62.5768C57 65.571 59.4386 68.0072 62.4361 68.0072C64.7773 68.0072 66.7778 66.5211 67.5414 64.4434C70.0812 64.6436 71.9831 65.3778 73.2017 66.6385C75.5695 69.0872 75.4112 73.4846 75.2858 77.0169C75.2807 77.1573 75.2759 77.2945 75.2713 77.4322H67.4196C66.4185 77.4322 65.6073 78.2417 65.6073 79.2407C65.6073 80.2397 66.4185 81.0492 67.4196 81.0492L146.425 81.6998C146.745 82.2373 147.211 82.0284 147.787 82.3144C152.852 84.8275 156.125 90.5902 156.125 96.9954C156.125 105.788 149.987 112.941 142.441 112.941C141.915 112.941 141.35 112.893 140.666 112.789C140.636 112.785 137.632 112.346 135.64 110.284C134.945 109.566 133.798 109.545 133.078 110.239C132.357 110.932 132.336 112.077 133.032 112.796C134.748 114.571 136.878 115.491 138.361 115.949C137.561 120.16 135.287 123.906 132.089 126.171C131.273 126.749 131.081 127.878 131.66 128.693C132.239 129.507 133.371 129.699 134.187 129.121C138.224 126.261 140.99 121.746 141.944 116.548C142.112 116.555 142.277 116.558 142.442 116.558C151.986 116.558 159.75 107.782 159.75 96.9949C159.75 89.3626 155.827 82.4374 149.725 79.2402C155.826 76.0432 159.75 69.1183 159.75 61.4859C159.75 50.699 151.985 41.9229 142.441 41.9229C142.277 41.9229 142.112 41.9263 141.943 41.9328C141.557 39.832 140.87 37.8328 139.892 35.9696C139.427 35.0849 138.332 34.7434 137.446 35.2069C136.559 35.6703 136.217 36.7629 136.681 37.6481ZM134.549 62.5771C134.549 61.5773 135.362 60.7637 136.361 60.7637C137.36 60.7637 138.173 61.5771 138.173 62.5771C138.173 63.5771 137.36 64.3904 136.361 64.3904C135.362 64.3902 134.549 63.5768 134.549 62.5771ZM122.555 46.9988C122.555 45.999 123.367 45.1855 124.366 45.1855C125.365 45.1855 126.178 45.9988 126.178 46.9988C126.178 47.9988 125.365 48.8121 124.366 48.8121C123.368 48.8121 122.555 47.9985 122.555 46.9988ZM72.2588 46.9988C72.2588 45.999 73.0714 45.1855 74.0703 45.1855C75.0695 45.1855 75.8821 45.9988 75.8821 46.9988C75.8821 47.9988 75.0695 48.8121 74.0703 48.8121C73.0714 48.8121 72.2588 47.9985 72.2588 46.9988ZM60.6241 62.5771C60.6241 61.5773 61.4367 60.7637 62.4356 60.7637C63.4348 60.7637 64.2474 61.5771 64.2474 62.5771C64.2474 63.5771 63.4348 64.3904 62.4356 64.3904C61.4369 64.3902 60.6241 63.5768 60.6241 62.5771Z" fill="#898BF8"/>
<path d="M97.323 15.3103C93.0004 15.3103 88.9023 17.0433 85.6122 20.228C83.3746 18.4771 80.7125 17.5302 77.9533 17.5302C71.4912 17.5302 66.1334 22.5738 64.8329 29.4324C63.4476 28.9011 61.9903 28.6265 60.5205 28.6265C53.1129 28.6265 47.0862 35.4113 47.0862 43.7509C47.0862 43.9173 47.0901 44.096 47.0969 44.2826C43.6789 44.7451 40.4889 46.5256 37.9855 49.3983C35.1659 52.6338 33.5829 56.8462 33.529 61.2595C33.5278 61.3398 33.5273 61.4201 33.5273 61.5004C33.5273 68.0756 36.8452 74.1177 42.0518 77.0408C63.5 90 58.36 82.424 58.36 89C58.36 89.0798 33.5278 92.742 33.529 92.8221C33.5832 97.2356 35.1659 101.448 37.9855 104.683C40.4884 107.556 43.6782 109.336 47.0969 109.799C47.0901 109.986 47.0862 110.164 47.0862 110.331C47.0862 111.33 47.8974 112.139 48.8985 112.139C49.8996 112.139 50.7108 111.33 50.7108 110.331C50.7108 109.778 50.7671 109.008 50.8577 108.321C50.9295 107.777 50.7519 107.236 50.3756 106.84C49.9992 106.444 49.4639 106.239 48.9188 106.282L48.7951 106.293C48.7625 106.296 48.7301 106.3 48.7149 106.301C42.5365 106.191 37.2418 99.998 37.1528 92.7777C37.0973 87.3232 39.7917 82.3378 44.0467 80.0738C44.5839 79.788 43.5 79 45.3262 78.849H56.5477C57.5488 78.849 58.36 78.0395 58.36 77.0405C58.36 76.0415 57.5488 75.232 56.5477 75.232H45.3264C45.0207 74.7196 44.5841 74.293 44.047 74.0073C39.8437 71.771 37.1519 66.8777 37.1519 61.5023C37.1519 61.4362 37.1524 61.3699 37.1531 61.3038C37.2418 54.0835 42.5365 47.8905 48.6975 47.7805C48.6767 47.8097 52.3305 47.8319 54.6591 49.7761C55.4268 50.4171 56.5695 50.3156 57.2118 49.5497C57.4957 49.2114 57.6341 48.7998 57.6341 48.3901C57.6341 47.8731 57.4133 47.36 56.9846 47.0021C54.9677 45.318 52.459 44.6335 50.7284 44.3547C50.7171 44.1374 50.7105 43.9318 50.7105 43.7507C50.7105 37.4057 55.1112 32.2433 60.5202 32.2433C62.1989 32.2433 63.8664 32.7634 65.3425 33.7472C65.8913 34.1133 66.5962 34.1523 67.1821 33.8495C67.7683 33.5468 68.1433 32.95 68.1607 32.2915C68.3275 26.0423 72.6288 21.1467 77.9528 21.1467C80.3276 21.1467 82.6229 22.1641 84.4163 24.0114C84.4352 24.0297 86.3644 25.9641 86.5654 28.4869C86.6447 29.4825 87.5177 30.2255 88.5157 30.1464C89.4646 30.0709 90.1841 29.2792 90.1841 28.3453C90.1841 28.2973 90.1822 28.2489 90.1786 28.1999C89.9962 25.9087 88.9687 24.0256 88.1259 22.8361C90.7404 20.3057 93.9575 18.9273 97.323 18.9273C103.469 18.9273 108.888 23.7698 110.502 30.7031C110.65 31.3422 111.134 31.8509 111.766 32.0323C112.398 32.2136 113.079 32.0393 113.545 31.5765C115.961 29.1797 119.226 27.8047 122.504 27.8047C124.797 27.8047 127.065 28.4806 129.063 29.7589C129.905 30.298 131.026 30.0535 131.566 29.2124C131.761 28.9103 131.854 28.5722 131.854 28.238C131.854 27.6424 131.559 27.0591 131.019 26.7141C128.436 25.0613 125.491 24.1874 122.504 24.1874C119.217 24.1874 115.95 25.2499 113.206 27.163C110.519 20.0626 104.306 15.3103 97.323 15.3103Z" fill="#898BF8"/>
<path d="M96.8939 53.0869C97.8948 53.0869 98.7062 52.2771 98.7062 51.2781C98.7062 50.2791 97.8948 49.4694 96.8939 49.4694C95.8931 49.4694 95.0817 50.2791 95.0817 51.2781C95.0817 52.2771 95.8931 53.0869 96.8939 53.0869Z" fill="#898BF8"/>
<path d="M98.7062 38.9827C98.7062 37.9837 97.8948 37.174 96.8939 37.174C95.8931 37.174 95.0817 37.9837 95.0817 38.9827C95.0817 39.9817 95.8931 40.7915 96.8939 40.7915C97.8948 40.7915 98.7062 39.9815 98.7062 38.9827Z" fill="#898BF8"/>
<path d="M146.792 62.1849C147.793 62.1849 148.604 61.3752 148.604 60.3761C148.604 59.3771 147.793 58.5674 146.792 58.5674C145.791 58.5674 144.979 59.3771 144.979 60.3761C144.979 61.3752 145.791 62.1849 146.792 62.1849Z" fill="#898BF8"/>
<path d="M46.9961 58.5676C45.9953 58.5676 45.1838 59.3774 45.1838 60.3764C45.1838 61.3754 45.9953 62.1851 46.9961 62.1851C47.997 62.1851 48.8084 61.3754 48.8084 60.3764C48.8084 59.3774 47.997 58.5676 46.9961 58.5676Z" fill="#898BF8"/>
</g>
<path d="M149.5 80H66" stroke="#898BF8" stroke-width="3"/>
<path d="M234.145 65.4048H212.685V88H203.42V34.6797H237.294V42.1504H212.685V58.0073H234.145V65.4048ZM257.011 88H248.112V31.75H257.011V88ZM287.934 88.7324C282.294 88.7324 277.717 86.9624 274.201 83.4224C270.71 79.8579 268.964 75.1216 268.964 69.2134V68.1147C268.964 64.1597 269.721 60.6318 271.235 57.5312C272.773 54.4062 274.921 51.9771 277.68 50.2437C280.439 48.5103 283.515 47.6436 286.909 47.6436C292.304 47.6436 296.467 49.3647 299.396 52.8071C302.351 56.2495 303.828 61.1201 303.828 67.4189V71.0078H277.937C278.205 74.2793 279.292 76.8672 281.196 78.7715C283.125 80.6758 285.542 81.6279 288.447 81.6279C292.524 81.6279 295.844 79.98 298.408 76.6841L303.205 81.2617C301.618 83.6299 299.494 85.4731 296.833 86.7915C294.196 88.0854 291.23 88.7324 287.934 88.7324ZM286.872 54.7847C284.431 54.7847 282.453 55.6392 280.939 57.3481C279.45 59.0571 278.498 61.4375 278.083 64.4893H295.039V63.8301C294.843 60.8516 294.05 58.6055 292.658 57.0918C291.267 55.5537 289.338 54.7847 286.872 54.7847ZM328.745 61.4131L336.289 48.376H346.176L334.055 67.895L346.579 88H336.765L328.854 74.4502L320.981 88H311.093L323.618 67.895L311.533 48.376H321.347L328.745 61.4131ZM397.534 70.6416C396.997 76.3301 394.897 80.7734 391.235 83.9717C387.573 87.1455 382.702 88.7324 376.623 88.7324C372.375 88.7324 368.627 87.7314 365.38 85.7295C362.158 83.7031 359.667 80.8345 357.91 77.1235C356.152 73.4126 355.236 69.1035 355.163 64.1963V59.2158C355.163 54.1865 356.054 49.7554 357.836 45.9224C359.619 42.0894 362.17 39.1353 365.49 37.0601C368.835 34.9849 372.692 33.9473 377.062 33.9473C382.946 33.9473 387.683 35.5464 391.271 38.7446C394.86 41.9429 396.948 46.4595 397.534 52.2944H388.305C387.866 48.4614 386.743 45.7026 384.936 44.0181C383.154 42.3091 380.529 41.4546 377.062 41.4546C373.034 41.4546 369.934 42.9316 367.761 45.8857C365.612 48.8154 364.514 53.1245 364.465 58.813V63.5371C364.465 69.2988 365.49 73.6934 367.541 76.7207C369.616 79.748 372.644 81.2617 376.623 81.2617C380.261 81.2617 382.995 80.4438 384.826 78.8081C386.657 77.1724 387.817 74.4502 388.305 70.6416H397.534ZM432.412 88C432.021 87.2432 431.679 86.0103 431.386 84.3013C428.554 87.2554 425.087 88.7324 420.986 88.7324C417.006 88.7324 413.759 87.5972 411.245 85.3267C408.73 83.0562 407.473 80.2485 407.473 76.9038C407.473 72.6802 409.035 69.4453 412.16 67.1992C415.31 64.9287 419.802 63.7935 425.637 63.7935H431.093V61.1934C431.093 59.1426 430.52 57.5068 429.372 56.2861C428.225 55.041 426.479 54.4185 424.135 54.4185C422.109 54.4185 420.449 54.9312 419.155 55.9565C417.861 56.9575 417.214 58.2393 417.214 59.8018H408.315C408.315 57.6289 409.035 55.6025 410.476 53.7227C411.916 51.8184 413.869 50.3291 416.335 49.2549C418.825 48.1807 421.596 47.6436 424.648 47.6436C429.287 47.6436 432.985 48.8154 435.744 51.1592C438.503 53.4785 439.919 56.75 439.992 60.9736V78.8447C439.992 82.4092 440.493 85.2534 441.494 87.3774V88H432.412ZM422.634 81.5913C424.392 81.5913 426.04 81.1641 427.578 80.3096C429.14 79.4551 430.312 78.3076 431.093 76.8672V69.3965H426.296C423 69.3965 420.522 69.9702 418.862 71.1177C417.202 72.2651 416.372 73.8887 416.372 75.9883C416.372 77.6973 416.933 79.0645 418.056 80.0898C419.204 81.0908 420.729 81.5913 422.634 81.5913ZM473.808 56.5059C472.636 56.3105 471.428 56.2129 470.183 56.2129C466.105 56.2129 463.359 57.7754 461.943 60.9004V88H453.044V48.376H461.54L461.76 52.8071C463.908 49.3647 466.887 47.6436 470.695 47.6436C471.965 47.6436 473.015 47.8145 473.845 48.1562L473.808 56.5059ZM503.925 56.5059C502.753 56.3105 501.545 56.2129 500.3 56.2129C496.223 56.2129 493.476 57.7754 492.06 60.9004V88H483.161V48.376H491.657L491.877 52.8071C494.025 49.3647 497.004 47.6436 500.812 47.6436C502.082 47.6436 503.132 47.8145 503.962 48.1562L503.925 56.5059ZM522.763 88H513.864V48.376H522.763V88ZM513.315 38.0854C513.315 36.7183 513.742 35.583 514.597 34.6797C515.476 33.7764 516.721 33.3247 518.332 33.3247C519.943 33.3247 521.188 33.7764 522.067 34.6797C522.946 35.583 523.386 36.7183 523.386 38.0854C523.386 39.4282 522.946 40.5513 522.067 41.4546C521.188 42.3335 519.943 42.7729 518.332 42.7729C516.721 42.7729 515.476 42.3335 514.597 41.4546C513.742 40.5513 513.315 39.4282 513.315 38.0854ZM553.686 88.7324C548.046 88.7324 543.469 86.9624 539.953 83.4224C536.462 79.8579 534.716 75.1216 534.716 69.2134V68.1147C534.716 64.1597 535.473 60.6318 536.987 57.5312C538.525 54.4062 540.673 51.9771 543.432 50.2437C546.191 48.5103 549.267 47.6436 552.661 47.6436C558.056 47.6436 562.219 49.3647 565.148 52.8071C568.103 56.2495 569.58 61.1201 569.58 67.4189V71.0078H543.688C543.957 74.2793 545.043 76.8672 546.948 78.7715C548.876 80.6758 551.293 81.6279 554.199 81.6279C558.276 81.6279 561.596 79.98 564.16 76.6841L568.957 81.2617C567.37 83.6299 565.246 85.4731 562.585 86.7915C559.948 88.0854 556.982 88.7324 553.686 88.7324ZM552.624 54.7847C550.183 54.7847 548.205 55.6392 546.691 57.3481C545.202 59.0571 544.25 61.4375 543.835 64.4893H560.791V63.8301C560.595 60.8516 559.802 58.6055 558.41 57.0918C557.019 55.5537 555.09 54.7847 552.624 54.7847ZM601.015 56.5059C599.843 56.3105 598.635 56.2129 597.39 56.2129C593.312 56.2129 590.566 57.7754 589.15 60.9004V88H580.251V48.376H588.747L588.967 52.8071C591.115 49.3647 594.094 47.6436 597.902 47.6436C599.172 47.6436 600.222 47.8145 601.052 48.1562L601.015 56.5059Z" fill="white"/>
<path d="M214.766 120.756C214.766 119.574 214.351 118.642 213.521 117.958C212.69 117.265 211.172 116.61 208.965 115.995C206.758 115.37 205.146 114.691 204.131 113.959C202.686 112.924 201.963 111.566 201.963 109.887C201.963 108.256 202.632 106.933 203.97 105.917C205.317 104.892 207.036 104.379 209.126 104.379C210.542 104.379 211.807 104.652 212.92 105.199C214.043 105.746 214.912 106.508 215.527 107.484C216.143 108.461 216.45 109.55 216.45 110.751H214.634C214.634 109.296 214.136 108.129 213.14 107.25C212.144 106.361 210.806 105.917 209.126 105.917C207.495 105.917 206.196 106.283 205.229 107.016C204.263 107.738 203.779 108.686 203.779 109.857C203.779 110.941 204.214 111.825 205.083 112.509C205.952 113.192 207.344 113.798 209.258 114.325C211.172 114.843 212.622 115.385 213.608 115.951C214.595 116.508 215.337 117.177 215.835 117.958C216.333 118.739 216.582 119.662 216.582 120.727C216.582 122.406 215.908 123.754 214.561 124.77C213.223 125.785 211.455 126.293 209.258 126.293C207.754 126.293 206.372 126.024 205.112 125.487C203.862 124.95 202.91 124.198 202.256 123.231C201.611 122.265 201.289 121.156 201.289 119.906H203.091C203.091 121.41 203.652 122.597 204.775 123.466C205.898 124.335 207.393 124.77 209.258 124.77C210.918 124.77 212.251 124.403 213.257 123.671C214.263 122.938 214.766 121.967 214.766 120.756ZM233.756 115.775H223.78V124.477H235.25V126H221.979V104.672H235.177V106.21H223.78V114.252H233.756V115.775ZM252.072 120.023H242.39L240.192 126H238.303L246.374 104.672H248.088L256.159 126H254.284L252.072 120.023ZM242.946 118.485H251.501L247.224 106.869L242.946 118.485ZM268.777 117.123H262.581V126H260.765V104.672H267.693C269.969 104.672 271.746 105.224 273.025 106.327C274.305 107.431 274.944 108.974 274.944 110.956C274.944 112.323 274.544 113.529 273.743 114.574C272.942 115.619 271.868 116.342 270.521 116.742L275.853 125.81V126H273.934L268.777 117.123ZM262.581 115.585H268.104C269.617 115.585 270.833 115.155 271.751 114.296C272.669 113.437 273.128 112.323 273.128 110.956C273.128 109.452 272.649 108.285 271.692 107.455C270.735 106.625 269.393 106.21 267.664 106.21H262.581V115.585ZM296.454 119.35C296.21 121.596 295.404 123.314 294.037 124.506C292.68 125.697 290.868 126.293 288.603 126.293C287.021 126.293 285.619 125.897 284.398 125.106C283.188 124.315 282.25 123.197 281.586 121.752C280.922 120.297 280.585 118.637 280.575 116.771V114.003C280.575 112.108 280.907 110.429 281.571 108.964C282.235 107.499 283.188 106.371 284.428 105.58C285.678 104.779 287.113 104.379 288.734 104.379C291.02 104.379 292.821 104.999 294.14 106.239C295.468 107.47 296.239 109.174 296.454 111.352H294.638C294.188 107.729 292.221 105.917 288.734 105.917C286.801 105.917 285.258 106.64 284.105 108.085C282.963 109.53 282.392 111.527 282.392 114.076V116.684C282.392 119.145 282.948 121.107 284.062 122.572C285.185 124.037 286.698 124.77 288.603 124.77C290.487 124.77 291.908 124.32 292.865 123.422C293.822 122.514 294.413 121.156 294.638 119.35H296.454ZM318.14 126H316.323V115.775H304.136V126H302.334V104.672H304.136V114.252H316.323V104.672H318.14V126ZM345.939 120.756C345.939 119.574 345.524 118.642 344.694 117.958C343.864 117.265 342.346 116.61 340.139 115.995C337.932 115.37 336.32 114.691 335.305 113.959C333.859 112.924 333.137 111.566 333.137 109.887C333.137 108.256 333.806 106.933 335.144 105.917C336.491 104.892 338.21 104.379 340.3 104.379C341.716 104.379 342.98 104.652 344.094 105.199C345.217 105.746 346.086 106.508 346.701 107.484C347.316 108.461 347.624 109.55 347.624 110.751H345.808C345.808 109.296 345.31 108.129 344.313 107.25C343.317 106.361 341.979 105.917 340.3 105.917C338.669 105.917 337.37 106.283 336.403 107.016C335.437 107.738 334.953 108.686 334.953 109.857C334.953 110.941 335.388 111.825 336.257 112.509C337.126 113.192 338.518 113.798 340.432 114.325C342.346 114.843 343.796 115.385 344.782 115.951C345.769 116.508 346.511 117.177 347.009 117.958C347.507 118.739 347.756 119.662 347.756 120.727C347.756 122.406 347.082 123.754 345.734 124.77C344.396 125.785 342.629 126.293 340.432 126.293C338.928 126.293 337.546 126.024 336.286 125.487C335.036 124.95 334.084 124.198 333.43 123.231C332.785 122.265 332.463 121.156 332.463 119.906H334.265C334.265 121.41 334.826 122.597 335.949 123.466C337.072 124.335 338.566 124.77 340.432 124.77C342.092 124.77 343.425 124.403 344.431 123.671C345.437 122.938 345.939 121.967 345.939 120.756ZM355.54 104.672L363.406 123.495L371.302 104.672H373.704V126H371.902V116.713L372.049 107.191L364.109 126H362.718L354.808 107.265L354.954 116.654V126H353.152V104.672H355.54ZM392.387 120.023H382.704L380.507 126H378.617L386.688 104.672H388.402L396.474 126H394.599L392.387 120.023ZM383.261 118.485H391.815L387.538 106.869L383.261 118.485ZM409.092 117.123H402.896V126H401.079V104.672H408.008C410.283 104.672 412.061 105.224 413.34 106.327C414.619 107.431 415.259 108.974 415.259 110.956C415.259 112.323 414.858 113.529 414.058 114.574C413.257 115.619 412.183 116.342 410.835 116.742L416.167 125.81V126H414.248L409.092 117.123ZM402.896 115.585H408.418C409.932 115.585 411.147 115.155 412.065 114.296C412.983 113.437 413.442 112.323 413.442 110.956C413.442 109.452 412.964 108.285 412.007 107.455C411.05 106.625 409.707 106.21 407.979 106.21H402.896V115.585ZM434.967 106.21H427.657V126H425.855V106.21H418.561V104.672H434.967V106.21ZM451.701 115.775H441.726V124.477H453.195V126H439.924V104.672H453.122V106.21H441.726V114.252H451.701V115.775ZM466.473 117.123H460.276V126H458.46V104.672H465.389C467.664 104.672 469.441 105.224 470.721 106.327C472 107.431 472.64 108.974 472.64 110.956C472.64 112.323 472.239 113.529 471.438 114.574C470.638 115.619 469.563 116.342 468.216 116.742L473.548 125.81V126H471.629L466.473 117.123ZM460.276 115.585H465.799C467.312 115.585 468.528 115.155 469.446 114.296C470.364 113.437 470.823 112.323 470.823 110.956C470.823 109.452 470.345 108.285 469.388 107.455C468.431 106.625 467.088 106.21 465.359 106.21H460.276V115.585Z" fill="white" fill-opacity="0.48"/>
<defs>
<clipPath id="clip0">
<rect width="130" height="68" fill="white" transform="translate(28 11)"/>
</clipPath>
</defs>
</svg>
