<svg width="538" height="282" viewBox="0 0 538 282" fill="none" xmlns="http://www.w3.org/2000/svg">
<path d="M439.408 101.388C443.697 109.575 446.354 118.556 447.307 128.08C447.512 130.125 448.547 131.997 450.171 133.258C451.795 134.519 453.865 135.057 455.898 134.748C458.731 134.316 461.066 134.116 463.246 134.116C494.472 134.116 519.875 163.781 519.875 200.245C519.875 226.808 506.33 250.706 485.366 261.129C482.982 262.315 481.056 264.146 479.73 266.375H384.963C384.943 265.805 384.923 265.236 384.903 264.654C384.383 249.998 383.729 231.768 393.528 221.613C398.572 216.385 406.443 213.34 416.954 212.51C420.114 221.125 428.392 227.289 438.081 227.289C450.486 227.289 460.579 217.186 460.579 204.769C460.579 192.352 450.486 182.249 438.081 182.249C428.225 182.249 419.835 188.629 416.801 197.477C402.016 198.471 390.573 203.072 382.733 211.196C368.509 225.937 369.321 248.623 369.912 265.188C369.926 265.589 369.94 265.979 369.954 266.374H322.804C322.959 189.868 326.095 151.252 367.316 147.908C370.477 156.522 378.754 162.685 388.443 162.685C400.848 162.685 410.941 152.582 410.941 140.165C410.941 127.748 400.848 117.645 388.443 117.645C378.582 117.645 370.19 124.031 367.159 132.886C340.573 134.735 323.605 148.641 315.399 175.258C308.281 198.347 307.828 229.871 307.8 266.374H260.939C260.91 229.871 260.458 198.347 253.34 175.258C245.134 148.641 228.166 134.735 201.58 132.886C198.549 124.031 190.156 117.645 180.295 117.645C167.89 117.645 157.798 127.748 157.798 140.165C157.798 152.582 167.89 162.685 180.295 162.685C189.984 162.685 198.262 156.522 201.423 147.908C242.644 151.252 245.78 189.868 245.935 266.374H200.274C200.288 265.979 200.301 265.59 200.316 265.188C200.441 261.678 200.577 257.894 200.577 253.969C200.577 239.366 198.705 222.814 187.495 211.196C179.656 203.071 168.212 198.471 153.428 197.477C150.393 188.629 142.003 182.249 132.147 182.249C119.742 182.249 109.65 192.352 109.65 204.769C109.65 217.186 119.742 227.289 132.147 227.289C141.836 227.289 150.115 221.126 153.275 212.51C163.786 213.34 171.657 216.385 176.7 221.613C186.499 231.768 185.844 250.004 185.325 264.653C185.304 265.235 185.284 265.804 185.265 266.375H152.771C148.628 266.375 145.271 269.732 145.271 273.875C145.271 278.018 148.628 281.375 152.771 281.375H479.732C481.058 283.604 482.985 285.436 485.37 286.622C506.33 297.044 519.875 320.942 519.875 347.505C519.875 383.969 494.472 413.634 463.246 413.634C461.066 413.634 458.731 413.434 455.898 413.002C455.774 412.985 443.344 411.163 435.098 402.615C432.223 399.634 427.475 399.549 424.494 402.425C421.514 405.301 421.426 410.05 424.304 413.029C431.408 420.393 440.221 424.206 446.359 426.107C443.049 443.568 433.636 459.104 420.401 468.498C417.026 470.895 416.23 475.578 418.627 478.956C421.025 482.333 425.707 483.128 429.085 480.73C445.792 468.87 457.241 450.146 461.186 428.591C461.882 428.618 462.567 428.632 463.248 428.632C502.744 428.632 534.877 392.237 534.877 347.503C534.877 315.851 518.64 287.132 493.388 273.873C518.639 260.615 534.875 231.897 534.875 200.245C534.875 155.511 502.742 119.116 463.246 119.116C462.565 119.116 461.881 119.13 461.184 119.157C459.586 110.445 456.743 102.154 452.695 94.4272C450.773 90.7582 446.24 89.3422 442.571 91.2642C438.901 93.1862 437.485 97.7172 439.408 101.388V101.388ZM430.585 204.77C430.585 200.624 433.948 197.25 438.082 197.25C442.217 197.25 445.58 200.623 445.58 204.77C445.58 208.917 442.217 212.29 438.082 212.29C433.948 212.289 430.585 208.916 430.585 204.77ZM380.946 140.166C380.946 136.02 384.309 132.646 388.443 132.646C392.578 132.646 395.941 136.019 395.941 140.166C395.941 144.313 392.578 147.686 388.443 147.686C384.31 147.686 380.946 144.312 380.946 140.166ZM172.798 140.166C172.798 136.02 176.161 132.646 180.295 132.646C184.43 132.646 187.793 136.019 187.793 140.166C187.793 144.313 184.43 147.686 180.295 147.686C176.161 147.686 172.798 144.312 172.798 140.166V140.166ZM124.648 204.77C124.648 200.624 128.011 197.25 132.145 197.25C136.28 197.25 139.643 200.623 139.643 204.77C139.643 208.917 136.28 212.29 132.145 212.29C128.012 212.289 124.648 208.916 124.648 204.77Z" fill="#898BF8"/>
<path d="M286.891 17.8752C269.002 17.8752 252.042 25.0622 238.426 38.2692C229.166 31.0082 218.149 27.0812 206.73 27.0812C179.987 27.0812 157.814 47.9972 152.432 76.4402C146.699 74.2372 140.668 73.0982 134.585 73.0982C103.929 73.0982 78.988 101.235 78.988 135.82C78.988 136.51 79.004 137.251 79.032 138.025C64.887 139.943 51.685 147.327 41.325 159.24C29.656 172.658 23.105 190.127 22.882 208.429C22.877 208.762 22.875 209.095 22.875 209.428C22.875 236.696 36.606 261.753 58.153 273.875C36.605 285.997 22.875 311.051 22.875 338.322C22.875 338.653 22.877 338.989 22.882 339.321C23.106 357.624 29.656 375.093 41.325 388.511C51.683 400.422 64.884 407.805 79.032 409.725C79.004 410.499 78.988 411.24 78.988 411.93C78.988 416.073 82.345 419.43 86.488 419.43C90.631 419.43 93.988 416.073 93.988 411.93C93.988 409.638 94.221 406.446 94.596 403.598C94.893 401.342 94.158 399.095 92.601 397.455C91.043 395.813 88.828 394.963 86.572 395.141L86.06 395.186C85.925 395.198 85.791 395.214 85.728 395.219C60.159 394.763 38.247 369.08 37.879 339.137C37.649 316.517 48.8 295.842 66.409 286.453C68.632 285.268 70.438 283.499 71.704 281.374H118.144C122.287 281.374 125.644 278.017 125.644 273.874C125.644 269.731 122.287 266.374 118.144 266.374H71.705C70.44 264.249 68.633 262.48 66.41 261.295C49.015 252.021 37.875 231.728 37.875 209.436C37.875 209.162 37.877 208.887 37.88 208.613C38.247 178.67 60.159 152.987 85.656 152.531C85.57 152.652 100.691 152.744 110.328 160.807C113.505 163.465 118.234 163.044 120.892 159.868C122.067 158.465 122.64 156.758 122.64 155.059C122.64 152.915 121.726 150.787 119.952 149.303C111.605 142.319 101.223 139.48 94.061 138.324C94.014 137.423 93.987 136.57 93.987 135.819C93.987 109.506 112.199 88.0972 134.584 88.0972C141.531 88.0972 148.432 90.2542 154.541 94.3342C156.812 95.8522 159.729 96.0142 162.154 94.7582C164.58 93.5032 166.132 91.0282 166.204 88.2972C166.894 62.3812 184.695 42.0792 206.728 42.0792C216.556 42.0792 226.055 46.2982 233.477 53.9592C233.555 54.0352 241.539 62.0572 242.371 72.5192C242.699 76.6482 246.312 79.7292 250.442 79.4012C254.369 79.0882 257.347 75.8052 257.347 71.9322C257.347 71.7332 257.339 71.5322 257.324 71.3292C256.569 61.8272 252.317 54.0182 248.829 49.0852C259.649 38.5912 272.963 32.8752 286.891 32.8752C312.326 32.8752 334.753 52.9572 341.431 81.7102C342.046 84.3602 344.049 86.4702 346.663 87.2222C349.278 87.9742 352.095 87.2512 354.024 85.3322C364.022 75.3922 377.536 69.6902 391.1 69.6902C400.589 69.6902 409.975 72.4932 418.245 77.7942C421.731 80.0302 426.371 79.0162 428.606 75.5282C429.41 74.2752 429.794 72.8732 429.794 71.4872C429.794 69.0172 428.575 66.5982 426.341 65.1672C415.652 58.3132 403.465 54.6892 391.101 54.6892C377.5 54.6892 363.977 59.0952 352.622 67.0292C341.501 37.5832 315.788 17.8752 286.891 17.8752Z" fill="#898BF8"/>
<path d="M285.115 174.537C289.257 174.537 292.615 171.179 292.615 167.036C292.615 162.893 289.257 159.535 285.115 159.535C280.973 159.535 277.615 162.893 277.615 167.036C277.615 171.179 280.973 174.537 285.115 174.537Z" fill="#898BF8"/>
<path d="M292.615 116.046C292.615 111.903 289.257 108.545 285.115 108.545C280.973 108.545 277.615 111.903 277.615 116.046C277.615 120.189 280.973 123.547 285.115 123.547C289.257 123.547 292.615 120.188 292.615 116.046Z" fill="#898BF8"/>
<path d="M491.615 212.267C495.757 212.267 499.115 208.909 499.115 204.766C499.115 200.623 495.757 197.265 491.615 197.265C487.473 197.265 484.115 200.623 484.115 204.766C484.115 208.909 487.473 212.267 491.615 212.267Z" fill="#898BF8"/>
<path d="M78.615 197.266C74.473 197.266 71.115 200.624 71.115 204.767C71.115 208.91 74.473 212.268 78.615 212.268C82.757 212.268 86.115 208.91 86.115 204.767C86.115 200.624 82.757 197.266 78.615 197.266Z" fill="#898BF8"/>
</svg>
